<svg width="24" height="24" viewBox="0 0 24 24" fill="none" xmlns="http://www.w3.org/2000/svg">
<path d="M12.5 14.4C17.744 14.4 22 16.3887 22 18.8333C22 20.5822 20.5822 22 18.8333 22H6.16667C4.41776 22 3 20.5822 3 18.8333C3 16.3887 7.256 14.4 12.5 14.4ZM20.7333 18.8333C20.7333 17.0853 17.0473 15.6667 12.5 15.6667C7.95267 15.6667 4.26667 17.0853 4.26667 18.8333C4.26667 19.8827 5.11733 20.7333 6.16667 20.7333H18.8333C19.8827 20.7333 20.7333 19.8827 20.7333 18.8333ZM12.5 3C13.6758 3 14.8034 3.46708 15.6348 4.29849C16.4663 5.1299 16.9333 6.25754 16.9333 7.43333C16.9333 8.60913 16.4663 9.73676 15.6348 10.5682C14.8034 11.3996 13.6758 11.8667 12.5 11.8667C11.3242 11.8667 10.1966 11.3996 9.36516 10.5682C8.53375 9.73676 8.06667 8.60913 8.06667 7.43333C8.06667 6.25754 8.53375 5.1299 9.36516 4.29849C10.1966 3.46708 11.3242 3 12.5 3ZM12.5 4.26667C11.6601 4.26667 10.8547 4.6003 10.2608 5.19416C9.66696 5.78803 9.33333 6.59348 9.33333 7.43333C9.33333 8.27319 9.66696 9.07864 10.2608 9.6725C10.8547 10.2664 11.6601 10.6 12.5 10.6C13.3399 10.6 14.1453 10.2664 14.7392 9.6725C15.333 9.07864 15.6667 8.27319 15.6667 7.43333C15.6667 6.59348 15.333 5.78803 14.7392 5.19416C14.1453 4.6003 13.3399 4.26667 12.5 4.26667Z" fill="black" stroke="black" stroke-width="0.4"/>
</svg>
