<svg width="24" height="24" viewBox="0 0 24 24" fill="none" xmlns="http://www.w3.org/2000/svg">
<path d="M21.84 18.8085L15.1175 3.29616C14.6842 2.23426 13.4683 1.71913 12.4017 2.1552L11.63 2.46978C11.3317 2.59128 11.0708 2.77603 10.8625 3.00988C10.4975 2.4057 9.83417 2.00125 9.0775 2.00125H4.08333C2.935 2.00041 2 2.93332 2 4.08094V19.8929C2 21.0405 2.935 21.9734 4.08333 21.9734H9.0775C10.2258 21.9734 11.1608 21.0405 11.1608 19.8929V6.73485L17.215 20.7076C17.65 21.7779 18.8933 22.2764 19.9308 21.8453L20.7017 21.5307C21.7525 21.1262 22.29 19.8446 21.84 18.8085ZM12.4208 7.54792L15.5075 6.29128L19.9825 16.6198L16.8958 17.8773L12.4208 7.54792ZM2.83333 6.99367H6.16083V16.9802H2.83333V6.99367ZM6.99417 6.99367H10.3275V16.9802H6.99417V6.99367ZM10.3275 4.08094V6.16146H6.99417V2.83262H9.0775C9.76667 2.83262 10.3275 3.3927 10.3275 4.08094ZM4.08333 2.83262H6.16083V6.16146H2.83333V4.08094C2.83333 3.3927 3.39417 2.83262 4.08333 2.83262ZM2.83333 19.8929V17.8124H6.16083V21.1412H4.08333C3.39417 21.1412 2.83333 20.5812 2.83333 19.8929ZM9.0775 21.1412H6.99417V17.8124H10.3275V19.8929C10.3275 20.5812 9.76667 21.1412 9.0775 21.1412ZM11.945 3.23957L12.7167 2.925C13.3425 2.66701 14.085 2.96744 14.3492 3.6174L15.1767 5.52648L12.09 6.78312L11.2592 4.86571C10.9992 4.22824 11.3067 3.49922 11.945 3.23957ZM21.0675 20.0876C20.9383 20.3947 20.6967 20.6336 20.3875 20.7601L19.6167 21.0746C18.9792 21.3343 18.2475 21.028 17.9842 20.3847L17.2283 18.6404L20.315 17.383L21.0725 19.1314C21.1992 19.4402 21.1967 19.7797 21.0675 20.0876Z" fill="black" stroke="black" stroke-width="0.5"/>
</svg>
