<svg width="24" height="24" viewBox="0 0 24 24" fill="none" xmlns="http://www.w3.org/2000/svg">
<path d="M16.1635 2C15.9425 2 15.7306 2.0878 15.5743 2.24408C15.4181 2.40036 15.3303 2.61232 15.3303 2.83333C15.3303 5.29083 13.1783 6.16667 11.1646 6.16667H5.33258C4.44873 6.16667 3.60107 6.51786 2.97609 7.14298C2.35111 7.7681 2 8.61594 2 9.5L2 11.1667C2.00182 11.6656 2.11619 12.1577 2.33459 12.6063C2.55299 13.0549 2.86979 13.4484 3.26138 13.7575L6.23738 20.4008C6.44903 20.8767 6.79406 21.2811 7.23071 21.5649C7.66736 21.8487 8.1769 21.9998 8.69765 22C9.11199 21.9997 9.51967 21.8958 9.88361 21.6977C10.2475 21.4996 10.5562 21.2137 10.7814 20.8658C11.0066 20.518 11.1413 20.1193 11.1731 19.7061C11.205 19.2929 11.133 18.8783 10.9638 18.5L9.13089 14.5H11.1646C13.1783 14.5 15.3303 15.3758 15.3303 17.8333C15.3303 18.0543 15.4181 18.2663 15.5743 18.4226C15.7306 18.5789 15.9425 18.6667 16.1635 18.6667C16.3844 18.6667 16.5963 18.5789 16.7526 18.4226C16.9088 18.2663 16.9966 18.0543 16.9966 17.8333V2.83333C16.9966 2.61232 16.9088 2.40036 16.7526 2.24408C16.5963 2.0878 16.3844 2 16.1635 2ZM9.44582 19.1825C9.501 19.3072 9.52421 19.4436 9.51334 19.5795C9.50247 19.7154 9.45786 19.8464 9.38356 19.9607C9.30926 20.075 9.20761 20.169 9.08784 20.234C8.96807 20.2991 8.83395 20.3332 8.69765 20.3333C8.49886 20.3332 8.30439 20.2753 8.13785 20.1667C7.97132 20.0582 7.83989 19.9035 7.75953 19.7217L5.42006 14.5H7.29797L9.44582 19.1825ZM15.3303 14.1667C14.14 13.2493 12.6662 12.7776 11.1646 12.8333H5.33258C4.89065 12.8333 4.46683 12.6577 4.15434 12.3452C3.84185 12.0326 3.66629 11.6087 3.66629 11.1667V9.5C3.66629 9.05797 3.84185 8.63405 4.15434 8.32149C4.46683 8.00893 4.89065 7.83333 5.33258 7.83333H11.1646C12.6657 7.89025 14.1394 7.42002 15.3303 6.50417V14.1667ZM21.9122 14.8767C21.8633 14.9746 21.7956 15.062 21.713 15.1338C21.6303 15.2056 21.5343 15.2604 21.4305 15.2951C21.3266 15.3298 21.217 15.3436 21.1078 15.3359C20.9986 15.3281 20.892 15.299 20.7941 15.25L19.1278 14.4167C18.93 14.3179 18.7796 14.1445 18.7096 13.9348C18.6396 13.7251 18.6558 13.4961 18.7546 13.2983C18.8533 13.1005 19.0266 12.9501 19.2363 12.8801C19.446 12.81 19.6749 12.8262 19.8726 12.925L21.5389 13.7583C21.7357 13.8571 21.8854 14.0297 21.9553 14.2384C22.0252 14.4472 22.0097 14.6751 21.9122 14.8725V14.8767ZM18.7546 7.37667C18.7056 7.27873 18.6764 7.17211 18.6687 7.06289C18.661 6.95367 18.6748 6.84399 18.7095 6.74013C18.7441 6.63628 18.7989 6.54027 18.8707 6.4576C18.9425 6.37493 19.0298 6.30722 19.1278 6.25833L20.7941 5.425C20.9919 5.32621 21.2208 5.31004 21.4304 5.38005C21.6401 5.45007 21.8134 5.60053 21.9122 5.79833C22.0109 5.99614 22.0271 6.22509 21.9571 6.43482C21.8871 6.64455 21.7367 6.81787 21.5389 6.91667L19.8726 7.75C19.7747 7.79896 19.6681 7.82815 19.5589 7.83588C19.4497 7.84362 19.3401 7.82976 19.2362 7.79508C19.1324 7.76041 19.0364 7.70561 18.9538 7.63382C18.8711 7.56203 18.8034 7.47464 18.7546 7.37667ZM18.6629 10.3333C18.6629 10.1123 18.7507 9.90036 18.9069 9.74408C19.0632 9.5878 19.2751 9.5 19.496 9.5H21.1623C21.3833 9.5 21.5952 9.5878 21.7515 9.74408C21.9077 9.90036 21.9955 10.1123 21.9955 10.3333C21.9955 10.5543 21.9077 10.7663 21.7515 10.9226C21.5952 11.0789 21.3833 11.1667 21.1623 11.1667H19.496C19.2751 11.1667 19.0632 11.0789 18.9069 10.9226C18.7507 10.7663 18.6629 10.5543 18.6629 10.3333Z" fill="black"/>
</svg>
