<svg width="17" height="16" viewBox="0 0 17 16" fill="none" xmlns="http://www.w3.org/2000/svg">
<path fill-rule="evenodd" clip-rule="evenodd" d="M2.77744 0.702523C3.79161 -0.30581 5.46161 -0.126643 6.31077 1.00836L7.36244 2.41169C8.05411 3.33502 7.99244 4.62502 7.17161 5.44086L6.97327 5.63919C6.95088 5.72246 6.94859 5.80986 6.96661 5.89419C7.01911 6.23419 7.30327 6.95419 8.49327 8.13752C9.68327 9.32086 10.4083 9.60419 10.7533 9.65752C10.8401 9.67599 10.9301 9.67342 11.0158 9.65002L11.3558 9.31169C12.0858 8.58669 13.2058 8.45086 14.1091 8.94169L15.7008 9.80836C17.0649 10.5484 17.4091 12.4017 16.2924 13.5125L15.1083 14.6892C14.7349 15.06 14.2333 15.3692 13.6216 15.4267C12.1133 15.5675 8.59911 15.3875 4.90494 11.715C1.45744 8.28669 0.795774 5.29669 0.711608 3.82336C0.669941 3.07836 1.02161 2.44836 1.46994 2.00336L2.77744 0.702523ZM5.31077 1.75752C4.88827 1.19336 4.10161 1.14836 3.65827 1.58919L2.34994 2.88919C2.07494 3.16252 1.94327 3.46419 1.95994 3.75252C2.02661 4.92336 2.55994 7.62086 5.78661 10.8292C9.17161 14.1942 12.2974 14.295 13.5058 14.1817C13.7524 14.1592 13.9974 14.0309 14.2266 13.8034L15.4099 12.6259C15.8916 12.1475 15.7858 11.2759 15.1041 10.9059L13.5124 10.04C13.0724 9.80169 12.5574 9.88002 12.2374 10.1984L11.8583 10.5759L11.4166 10.1325C11.8583 10.5759 11.8566 10.5767 11.8566 10.5767L11.8558 10.5784L11.8533 10.5809L11.8474 10.5859L11.8349 10.5975C11.7995 10.6299 11.7616 10.6594 11.7216 10.6859C11.6549 10.73 11.5666 10.7792 11.4558 10.82C11.2308 10.9042 10.9324 10.9492 10.5641 10.8925C9.84161 10.7817 8.88411 10.2892 7.61161 9.02419C6.33994 7.75919 5.84327 6.80752 5.73161 6.08586C5.67411 5.71752 5.71994 5.41919 5.80494 5.19419C5.85208 5.06774 5.91902 4.9496 6.00327 4.84419L6.02994 4.81502L6.04161 4.80252L6.04661 4.79752L6.04911 4.79502L6.05077 4.79336L6.29077 4.55502C6.64744 4.19919 6.69744 3.61002 6.36161 3.16086L5.31077 1.75752Z" fill="black"/>
</svg>
